<svg width="434" height="200" viewBox="0 0 434 200" fill="none" xmlns="http://www.w3.org/2000/svg">
<path d="M317.435 48.9237C321.418 44.9404 321.418 38.4822 317.435 34.4989C313.452 30.5156 306.994 30.5156 303.01 34.4989C299.027 38.4821 299.027 44.9403 303.01 48.9236C306.994 52.9069 313.452 52.907 317.435 48.9237Z" fill="url(#paint0_linear)"/>
<path d="M298.271 65.8097C301.509 67.4186 304.952 68.0394 308.08 69.9381C315.129 74.2174 321.6 79.4133 327.278 85.3941C330.171 88.4407 332.858 91.6814 335.322 95.0831C335.618 95.4909 335.916 95.8957 336.215 96.2995C336.717 95.2616 337.128 94.1067 337.584 92.8212C338.115 91.3263 338.716 89.632 339.56 87.9332C341.343 84.3456 343.749 81.1503 346.712 78.4358C349.674 75.7222 353.09 73.6024 356.866 72.1353C360.137 70.8643 363.541 70.1374 367.007 69.9662C361.823 66.5892 357.007 62.2105 352.89 58.1376C349.682 54.9641 346.705 51.558 343.989 47.9548C341.681 44.8925 339.153 41.6523 337.431 38.2205C335.916 35.2037 335.497 31.8862 333.871 28.8925C332.333 26.0618 330.285 23.5138 327.853 21.4012C322.996 17.1811 316.696 14.8261 310.263 14.8167C295.409 14.7952 283.351 26.8186 283.329 41.672C283.32 48.3753 285.86 54.9306 290.388 59.8735C292.624 62.3133 295.307 64.3372 298.271 65.8097ZM310.248 25.0342C319.458 25.0476 326.914 32.5249 326.9 41.7353C326.887 50.9457 319.41 58.4013 310.199 58.3879C300.989 58.3745 293.533 50.8972 293.547 41.6868C293.56 32.4764 301.038 25.0208 310.248 25.0342Z" fill="url(#paint1_linear)"/>
<path d="M368.645 75.4496C361.942 75.4398 355.386 77.9801 350.443 82.5087C348.004 84.744 345.98 87.4277 344.507 90.3912C342.898 93.6291 342.278 97.0724 340.379 100.2C336.1 107.249 330.904 113.72 324.923 119.398C321.876 122.291 318.636 124.978 315.234 127.443C312.032 129.763 309.006 132.267 305.324 133.817C302.396 135.05 299.186 135.67 296.432 137.302C293.898 138.804 291.534 140.895 289.626 143.129C285.497 147.963 283.199 154.192 283.19 160.548C283.168 175.401 295.192 187.459 310.045 187.481C321.172 187.497 331.599 180.358 335.313 169.808C335.692 168.728 336.001 167.624 336.423 166.56C336.472 166.435 336.522 166.311 336.573 166.187C339.797 158.337 346.307 150.946 352.179 145.01C355.353 141.802 358.759 138.825 362.362 136.109C365.425 133.801 368.665 131.273 372.097 129.551C375.113 128.037 378.431 127.617 381.425 125.991C384.255 124.454 386.803 122.405 388.916 119.973C393.136 115.117 395.491 108.816 395.5 102.383C395.522 87.5296 383.498 75.4712 368.645 75.4496ZM310.06 177.263C300.85 177.25 293.394 169.773 293.407 160.562C293.421 151.352 300.898 143.896 310.109 143.91C319.319 143.923 326.775 151.401 326.761 160.611C326.748 169.821 319.27 177.277 310.06 177.263ZM368.582 119.021C359.371 119.007 351.916 111.53 351.929 102.32C351.943 93.1093 359.42 85.6537 368.63 85.6671C377.841 85.6805 385.296 93.1578 385.283 102.368C385.269 111.579 377.792 119.034 368.582 119.021Z" fill="url(#paint2_linear)"/>
<path d="M375.817 109.557C379.8 105.573 379.8 99.1151 375.817 95.1318C371.834 91.1485 365.375 91.1485 361.392 95.1317C357.409 99.115 357.409 105.573 361.392 109.557C365.375 113.54 371.834 113.54 375.817 109.557Z" fill="url(#paint3_linear)"/>
<path d="M317.295 167.799C321.279 163.815 321.279 157.357 317.295 153.374C313.312 149.39 306.854 149.39 302.87 153.374C298.887 157.357 298.887 163.815 302.87 167.799C306.854 171.782 313.312 171.782 317.295 167.799Z" fill="url(#paint4_linear)"/>
<path d="M39.384 30.56L33.696 59.432H39.024L37.656 66.272H32.328L30.096 77H20.88L22.896 66.272H1.656L3.096 59.72L28.728 30.56H39.384ZM28.152 40.424L11.376 59.432H24.264L28.152 40.424ZM78.813 44.744C78.813 52.904 76.965 60.2 73.269 66.632C68.805 74.264 62.781 78.08 55.197 78.08C46.173 78.08 41.661 72.848 41.661 62.384C41.661 54.272 43.485 47.096 47.133 40.856C51.453 33.416 57.405 29.696 64.989 29.696C74.205 29.696 78.813 34.712 78.813 44.744ZM69.741 45.608C69.741 40.04 67.629 37.256 63.405 37.256C57.597 37.256 53.637 42.8 51.525 53.888C50.901 57.152 50.589 59.888 50.589 62.096C50.589 68.048 52.629 71.024 56.709 71.024C60.981 71.024 64.365 67.688 66.861 61.016C68.781 55.928 69.741 50.792 69.741 45.608Z" fill="#C20026"/>
<path d="M96.642 52.952L94.986 60.656H79.938L81.594 52.952H96.642ZM145.118 47.192C145.118 54.776 142.502 61.568 137.27 67.568C131.798 73.856 125.318 77 117.83 77H99.0377L108.254 30.92H129.71C134.366 30.92 138.134 32.48 141.014 35.6C143.75 38.624 145.118 42.488 145.118 47.192ZM134.102 48.848C134.102 45.728 133.166 43.232 131.294 41.36C129.47 39.488 126.974 38.528 123.806 38.48C123.182 38.48 121.022 38.6 117.326 38.84L111.422 69.008C114.542 69.248 116.438 69.368 117.11 69.368C122.198 69.368 126.374 67.16 129.638 62.744C132.614 58.76 134.102 54.128 134.102 48.848ZM185.888 40.784L178.688 77H168.032L168.824 73.04C164.6 76.592 160.472 78.368 156.44 78.368C149.816 78.368 146.504 74.408 146.504 66.488C146.504 60.2 148.064 54.416 151.184 49.136C154.784 42.944 159.512 39.848 165.368 39.848C169.496 39.848 172.712 40.616 175.016 42.152L175.304 40.784H185.888ZM173.936 47.552C172.304 47.264 170.648 47.12 168.968 47.12C165.368 47.12 162.488 48.92 160.328 52.52C158.456 55.64 157.52 59.12 157.52 62.96C157.52 67.088 159.344 69.152 162.992 69.152C167.456 69.152 170.096 67.04 170.912 62.816L173.936 47.552ZM227.953 40.352L195.841 93.92H185.473L198.289 75.56L190.441 40.352H202.249L206.497 62.888L220.249 40.352H227.953ZM255.484 43.16L254.404 48.2C251.428 47.24 248.572 46.76 245.836 46.76C241.18 46.76 238.852 48.104 238.852 50.792C238.852 52.088 240.148 53.24 242.74 54.248C246.916 55.832 249.292 56.816 249.868 57.2C252.46 58.784 253.756 60.944 253.756 63.68C253.756 67.856 251.908 71.336 248.212 74.12C244.804 76.664 240.94 77.936 236.62 77.936C230.812 77.936 226.42 76.808 223.444 74.552L224.956 67.208C229.036 69.752 233.14 71.024 237.268 71.024C238.756 71.024 240.076 70.688 241.228 70.016C242.62 69.248 243.316 68.168 243.316 66.776C243.316 65.528 242.044 64.352 239.5 63.248C235.42 61.52 233.02 60.44 232.3 60.008C229.756 58.328 228.484 56.144 228.484 53.456C228.484 49.28 230.284 45.824 233.884 43.088C237.196 40.64 241.012 39.416 245.332 39.416C248.932 39.416 252.316 40.664 255.484 43.16ZM30.024 118.784L28.944 124.04H18.936C18.072 128.168 16.824 134.408 15.192 142.76C15.048 143.528 14.976 144.32 14.976 145.136C14.976 146.816 15.432 148.208 16.344 149.312C17.256 150.368 18.528 150.896 20.16 150.896C21.6 150.896 23.112 150.728 24.696 150.392L24.048 154.352C21.552 155.408 18.72 155.936 15.552 155.936C10.224 155.936 7.56 153.008 7.56 147.152C7.56 145.904 7.68 144.608 7.92 143.264C8.88 137.936 10.152 131.528 11.736 124.04H7.056L7.632 120.944C10.512 119.744 12.672 118.472 14.112 117.128C15.552 115.736 16.992 113.672 18.432 110.936L22.032 110.144L20.304 118.784H30.024ZM54.8027 117.848L53.4347 124.832C52.7627 124.544 51.8267 124.4 50.6267 124.4C47.6027 124.4 44.1467 126.224 40.2587 129.872L35.2907 155H27.8747L35.1467 118.784H42.4907L41.4107 124.328L41.6267 124.4C44.5547 120.032 48.9467 117.848 54.8027 117.848ZM89.0668 118.784L81.7948 155H74.3788L75.6028 149.312C71.4268 153.728 66.8908 155.936 61.9948 155.936C55.6108 155.936 52.4188 152.024 52.4188 144.2C52.4188 138.104 53.9788 132.416 57.0988 127.136C60.6988 120.944 65.3548 117.848 71.0668 117.848C74.1388 117.848 77.5468 118.52 81.2908 119.864L81.5788 118.784H89.0668ZM80.2828 125.264C77.4988 124.112 74.8828 123.536 72.4348 123.536C68.7388 123.488 65.6908 125.432 63.2908 129.368C61.2268 132.728 60.1948 136.4 60.1948 140.384C60.1948 142.784 60.6508 144.752 61.5628 146.288C62.6668 148.208 64.3468 149.168 66.6028 149.168C68.9068 149.168 71.1148 148.376 73.2268 146.792C75.3868 145.208 76.6828 143.288 77.1148 141.032L80.2828 125.264ZM107.165 108.56C107.165 109.904 106.661 111.104 105.653 112.16C104.645 113.168 103.469 113.672 102.125 113.672C101.165 113.672 100.349 113.336 99.6773 112.664C99.0053 111.992 98.6693 111.176 98.6693 110.216C98.6693 108.92 99.1973 107.768 100.253 106.76C101.357 105.752 102.557 105.248 103.853 105.248C106.061 105.248 107.165 106.352 107.165 108.56ZM104.717 118.784L97.5173 155H90.1013L97.3733 118.784H104.717ZM141.55 126.56C141.55 127.808 141.406 129.152 141.118 130.592L136.294 155H128.878L133.126 133.256C133.606 130.808 133.846 129.152 133.846 128.288C133.846 125.216 132.334 123.68 129.31 123.68C126.958 123.68 123.718 124.544 119.59 126.272L113.83 155H106.414L113.686 118.784H121.03L120.382 122.024C125.71 119.24 130.078 117.848 133.486 117.848C138.862 117.848 141.55 120.752 141.55 126.56ZM161.868 108.56C161.868 109.904 161.364 111.104 160.356 112.16C159.348 113.168 158.172 113.672 156.828 113.672C155.868 113.672 155.052 113.336 154.38 112.664C153.708 111.992 153.372 111.176 153.372 110.216C153.372 108.92 153.9 107.768 154.956 106.76C156.06 105.752 157.26 105.248 158.556 105.248C160.764 105.248 161.868 106.352 161.868 108.56ZM159.42 118.784L152.22 155H144.804L152.076 118.784H159.42ZM196.253 126.56C196.253 127.808 196.109 129.152 195.821 130.592L190.997 155H183.581L187.829 133.256C188.309 130.808 188.549 129.152 188.549 128.288C188.549 125.216 187.037 123.68 184.013 123.68C181.661 123.68 178.421 124.544 174.293 126.272L168.533 155H161.117L168.389 118.784H175.733L175.085 122.024C180.413 119.24 184.781 117.848 188.189 117.848C193.565 117.848 196.253 120.752 196.253 126.56ZM236.372 118.784L228.74 156.944C227.732 161.888 224.876 165.68 220.172 168.32C216.14 170.576 211.388 171.704 205.916 171.704C201.74 171.704 198.092 170.576 194.971 168.32L195.764 163.28C196.82 164.144 198.62 164.816 201.164 165.296C203.276 165.728 205.22 165.944 206.996 165.944C210.116 165.944 212.9 165.464 215.348 164.504C218.516 163.256 220.364 161.36 220.892 158.816C221.324 156.704 221.996 153.536 222.908 149.312C218.732 153.728 214.196 155.936 209.3 155.936C202.916 155.936 199.724 152.024 199.724 144.2C199.724 138.104 201.284 132.416 204.404 127.136C208.004 120.944 212.66 117.848 218.372 117.848C221.444 117.848 224.852 118.52 228.596 119.864L228.884 118.784H236.372ZM227.588 125.264C224.804 124.112 222.188 123.536 219.74 123.536C216.044 123.488 212.996 125.432 210.596 129.368C208.532 132.728 207.5 136.4 207.5 140.384C207.5 142.784 207.956 144.752 208.868 146.288C209.972 148.208 211.652 149.168 213.908 149.168C216.212 149.168 218.42 148.376 220.532 146.792C222.692 145.208 223.988 143.288 224.42 141.032L227.588 125.264Z" fill="black"/>
<defs>
<linearGradient id="paint0_linear" x1="303.01" y1="34.4989" x2="317.435" y2="48.9236" gradientUnits="userSpaceOnUse">
<stop stop-color="#C20026"/>
<stop offset="1" stop-color="#FF0075"/>
</linearGradient>
<linearGradient id="paint1_linear" x1="325.168" y1="14.8167" x2="325.168" y2="96.2995" gradientUnits="userSpaceOnUse">
<stop stop-color="#C20026"/>
<stop offset="1" stop-color="#FF0075"/>
</linearGradient>
<linearGradient id="paint2_linear" x1="339.345" y1="75.4495" x2="339.345" y2="187.481" gradientUnits="userSpaceOnUse">
<stop stop-color="#C20026"/>
<stop offset="1" stop-color="#FF0075"/>
</linearGradient>
<linearGradient id="paint3_linear" x1="361.392" y1="95.1317" x2="375.817" y2="109.557" gradientUnits="userSpaceOnUse">
<stop stop-color="#C20026"/>
<stop offset="1" stop-color="#FF0075"/>
</linearGradient>
<linearGradient id="paint4_linear" x1="302.87" y1="153.374" x2="317.295" y2="167.799" gradientUnits="userSpaceOnUse">
<stop stop-color="#C20026"/>
<stop offset="1" stop-color="#FF0075"/>
</linearGradient>
</defs>
</svg>
